<?xml version="1.0" encoding="UTF-8"?>
<svg id="Calque_1" xmlns="http://www.w3.org/2000/svg" version="1.1" viewBox="0 0 2760 2528">
  <!-- Generator: Adobe Illustrator 29.3.1, SVG Export Plug-In . SVG Version: 2.1.0 Build 151)  -->
  <defs>
    <style>
      .st0, .st1, .st2, .st3, .st4, .st5, .st6, .st7, .st8 {
        fill-rule: evenodd;
      }

      .st0, .st9, .st10 {
        fill: #207fad;
      }

      .st1, .st11 {
        fill: #fa7d13;
      }

      .st12, .st3 {
        fill: #f97b14;
      }

      .st13, .st7 {
        fill: #e77129;
      }

      .st2, .st14 {
        fill: #b2633c;
      }

      .st4, .st15 {
        fill: #1494c3;
      }

      .st16, .st8 {
        fill: #d76c2c;
      }

      .st5, .st17 {
        fill: #1f7eac;
      }

      .st6, .st18 {
        fill: #eb7421;
      }

      .st10 {
        font-family: AvenirNextLTPro-Regular, 'Avenir Next LT Pro';
        font-size: 220px;
      }
    </style>
  </defs>
  <g>
    <path class="st6" d="M240.31,1843.12l297.28-297.85c38.94-39.02,102.37-37.95,141.67,2.39,39.3,40.34,39.59,104.67.64,143.69l-297.28,297.85c-38.94,39.02-102.37,37.95-141.67-2.39-39.3-40.34-39.59-104.67-.64-143.69h0Z"/>
    <path class="st18" d="M240.31,1843.12l297.28-297.85c38.94-39.02,102.37-37.95,141.67,2.39,39.3,40.34,39.59,104.67.64,143.69l-297.28,297.85c-38.94,39.02-102.37,37.95-141.67-2.39-39.3-40.34-39.59-104.67-.64-143.69h0Z"/>
  </g>
  <g>
    <path class="st7" d="M422.11,2018.39l309.99-303.85c40.61-39.81,106.75-38.71,147.73,2.44,40.98,41.15,41.28,106.78.67,146.58l-309.99,303.85c-40.61,39.8-106.75,38.71-147.73-2.44-40.98-41.15-41.28-106.78-.67-146.58h0Z"/>
    <path class="st13" d="M422.11,2018.39l309.99-303.85c40.61-39.81,106.75-38.71,147.73,2.44,40.98,41.15,41.28,106.78.67,146.58l-309.99,303.85c-40.61,39.8-106.75,38.71-147.73-2.44-40.98-41.15-41.28-106.78-.67-146.58h0Z"/>
  </g>
  <g>
    <path class="st8" d="M612.59,2183.31l310.49-318.76c40.67-41.76,108.56-42.29,151.63-1.18,43.07,41.11,45,108.28,4.33,150.04l-310.49,318.76c-40.68,41.76-108.56,42.29-151.63,1.18-43.07-41.11-45-108.28-4.33-150.04h0Z"/>
    <path class="st16" d="M612.59,2183.31l310.49-318.76c40.67-41.76,108.56-42.29,151.63-1.18,43.07,41.11,45,108.28,4.33,150.04l-310.49,318.76c-40.68,41.76-108.56,42.29-151.63,1.18-43.07-41.11-45-108.28-4.33-150.04h0Z"/>
  </g>
  <g>
    <path class="st2" d="M937.07,2212.49l295.11-299.8c38.66-39.27,102.18-38.75,141.88,1.16,39.7,39.92,40.54,104.11,1.88,143.39l-295.11,299.8c-38.66,39.27-102.18,38.75-141.88-1.16-39.7-39.92-40.54-104.11-1.88-143.39h0Z"/>
    <path class="st14" d="M937.07,2212.49l295.11-299.8c38.66-39.27,102.18-38.75,141.88,1.16,39.7,39.92,40.54,104.11,1.88,143.39l-295.11,299.8c-38.66,39.27-102.18,38.75-141.88-1.16-39.7-39.92-40.54-104.11-1.88-143.39h0Z"/>
  </g>
  <g>
    <path class="st2" d="M832.75,2319.81l293.06-298.04c38.39-39.04,102.23-39.32,142.59-.61,40.36,38.71,41.96,101.73,3.56,140.78l-293.06,298.04c-38.39,39.04-102.23,39.32-142.59.61-40.36-38.71-41.96-101.73-3.56-140.78h0Z"/>
    <path class="st14" d="M832.75,2319.81l293.06-298.04c38.39-39.04,102.23-39.32,142.59-.61,40.36,38.71,41.96,101.73,3.56,140.78l-293.06,298.04c-38.39,39.04-102.23,39.32-142.59.61-40.36-38.71-41.96-101.73-3.56-140.78h0Z"/>
  </g>
  <g>
    <path class="st4" d="M1606.72,516.1l297.28-297.85c38.94-39.02,102.37-37.95,141.67,2.39,39.3,40.34,39.59,104.67.64,143.69l-297.28,297.85c-38.94,39.02-102.37,37.95-141.67-2.39-39.3-40.34-39.59-104.67-.64-143.69h0Z"/>
    <path class="st15" d="M1606.72,516.1l297.28-297.85c38.94-39.02,102.37-37.95,141.67,2.39,39.3,40.34,39.59,104.67.64,143.69l-297.28,297.85c-38.94,39.02-102.37,37.95-141.67-2.39-39.3-40.34-39.59-104.67-.64-143.69h0Z"/>
  </g>
  <g>
    <path class="st4" d="M1800.61,686.86l297.28-297.85c38.94-39.02,102.37-37.95,141.67,2.39,39.3,40.34,39.59,104.67.64,143.69l-297.28,297.85c-38.94,39.02-102.37,37.95-141.67-2.39-39.3-40.34-39.59-104.67-.64-143.69h0Z"/>
    <path class="st15" d="M1800.61,686.86l297.28-297.85c38.94-39.02,102.37-37.95,141.67,2.39,39.3,40.34,39.59,104.67.64,143.69l-297.28,297.85c-38.94,39.02-102.37,37.95-141.67-2.39-39.3-40.34-39.59-104.67-.64-143.69h0Z"/>
  </g>
  <g>
    <path class="st4" d="M1969.01,879.7l297.28-297.85c38.94-39.02,102.37-37.95,141.67,2.39,39.3,40.34,39.59,104.67.64,143.69l-297.28,297.85c-38.94,39.02-102.37,37.95-141.67-2.39-39.3-40.34-39.59-104.67-.64-143.69h0Z"/>
    <path class="st15" d="M1969.01,879.7l297.28-297.85c38.94-39.02,102.37-37.95,141.67,2.39,39.3,40.34,39.59,104.67.64,143.69l-297.28,297.85c-38.94,39.02-102.37,37.95-141.67-2.39-39.3-40.34-39.59-104.67-.64-143.69h0Z"/>
  </g>
  <g>
    <path class="st1" d="M385.15,568.58l301.05,294.04c39.44,38.52,39.06,101.96-.85,141.69-39.91,39.74-104.24,40.72-143.67,2.2l-301.05-294.04c-39.44-38.52-39.06-101.96.85-141.69,39.91-39.74,104.24-40.72,143.67-2.2h0Z"/>
    <path class="st11" d="M385.15,568.58l301.05,294.04c39.44,38.52,39.06,101.96-.85,141.69-39.91,39.74-104.24,40.72-143.67,2.2l-301.05-294.04c-39.44-38.52-39.06-101.96.85-141.69,39.91-39.74,104.24-40.72,143.67-2.2h0Z"/>
  </g>
  <g>
    <path class="st3" d="M551.33,369.18l301.05,294.04c39.44,38.52,39.06,101.96-.85,141.69-39.91,39.74-104.24,40.72-143.67,2.2l-301.05-294.04c-39.44-38.52-39.06-101.96.85-141.69,39.91-39.74,104.24-40.72,143.67-2.2h0Z"/>
    <path class="st12" d="M551.33,369.18l301.05,294.04c39.44,38.52,39.06,101.96-.85,141.69-39.91,39.74-104.24,40.72-143.67,2.2l-301.05-294.04c-39.44-38.52-39.06-101.96.85-141.69,39.91-39.74,104.24-40.72,143.67-2.2h0Z"/>
  </g>
  <g>
    <path class="st3" d="M766.84,167.4l366.87,350.42c48.06,45.91,47.58,121.53-1.08,168.9-48.66,47.38-127.07,48.57-175.13,2.67l-366.87-350.42c-48.06-45.91-47.58-121.53,1.08-168.9,48.66-47.38,127.07-48.57,175.13-2.67h0Z"/>
    <path class="st12" d="M766.84,167.4l366.87,350.42c48.06,45.91,47.58,121.53-1.08,168.9-48.66,47.38-127.07,48.57-175.13,2.67l-366.87-350.42c-48.06-45.91-47.58-121.53,1.08-168.9,48.66-47.38,127.07-48.57,175.13-2.67h0Z"/>
  </g>
  <g>
    <path class="st3" d="M282.14,827.29l366.87,350.42c48.06,45.91,47.58,121.53-1.08,168.9-48.66,47.38-127.07,48.57-175.13,2.67L105.93,998.86c-48.06-45.91-47.58-121.53,1.08-168.9,48.66-47.38,127.07-48.57,175.13-2.67h0Z"/>
    <path class="st12" d="M282.14,827.29l366.87,350.42c48.06,45.91,47.58,121.53-1.08,168.9-48.66,47.38-127.07,48.57-175.13,2.67L105.93,998.86c-48.06-45.91-47.58-121.53,1.08-168.9,48.66-47.38,127.07-48.57,175.13-2.67h0Z"/>
  </g>
  <g>
    <path class="st3" d="M121.1,1545.6l369.14-360.28c48.36-47.2,124.68-43.55,170.46,8.15,45.79,51.7,43.7,131.87-4.66,179.07l-369.14,360.28c-48.36,47.2-124.68,43.55-170.46-8.15-45.79-51.7-43.7-131.87,4.66-179.07h0Z"/>
    <path class="st12" d="M121.1,1545.6l369.14-360.28c48.36-47.2,124.68-43.55,170.46,8.15,45.79,51.7,43.7,131.87-4.66,179.07l-369.14,360.28c-48.36,47.2-124.68,43.55-170.46-8.15-45.79-51.7-43.7-131.87,4.66-179.07h0Z"/>
  </g>
  <g>
    <path class="st4" d="M1806.46,254.45l-362.59,354.84c-47.5,46.49-123.06,43.45-168.77-6.78-45.71-50.23-44.26-128.63,3.24-175.12l362.59-354.84c47.5-46.49,123.06-43.45,168.77,6.78,45.71,50.23,44.26,128.63-3.24,175.12h0Z"/>
    <path class="st15" d="M1806.46,254.45l-362.59,354.84c-47.5,46.49-123.06,43.45-168.77-6.78-45.71-50.23-44.26-128.63,3.24-175.12l362.59-354.84c47.5-46.49,123.06-43.45,168.77,6.78,45.71,50.23,44.26,128.63-3.24,175.12h0Z"/>
  </g>
  <g>
    <path class="st4" d="M1079.43,622.92l360.83-356.82c47.27-46.74,121.76-43.09,166.38,8.17,44.62,51.25,42.47,130.7-4.8,177.44l-360.83,356.82c-47.27,46.74-121.76,43.09-166.38-8.17-44.62-51.25-42.47-130.7,4.8-177.44h0Z"/>
    <path class="st15" d="M1079.43,622.92l360.83-356.82c47.27-46.74,121.76-43.09,166.38,8.17,44.62,51.25,42.47,130.7-4.8,177.44l-360.83,356.82c-47.27,46.74-121.76,43.09-166.38-8.17-44.62-51.25-42.47-130.7,4.8-177.44h0Z"/>
  </g>
  <g>
    <path class="st0" d="M2155.38,1579.27l391.11,398.14c51.24,52.16,50.22,137.49-2.27,190.59-52.49,53.1-136.57,53.87-187.81,1.71l-391.11-398.14c-51.24-52.16-50.22-137.49,2.27-190.59,52.49-53.1,136.58-53.87,187.81-1.71h0Z"/>
    <path class="st9" d="M2155.38,1579.27l391.11,398.14c51.24,52.16,50.22,137.49-2.27,190.59-52.49,53.1-136.57,53.87-187.81,1.71l-391.11-398.14c-51.24-52.16-50.22-137.49,2.27-190.59,52.49-53.1,136.58-53.87,187.81-1.71h0Z"/>
  </g>
  <g>
    <path class="st0" d="M2292.73,1719.69l393.26,402.84c51.52,52.77,51.28,139.84-.54,194.46-51.82,54.63-135.59,56.13-187.11,3.36l-393.26-402.84c-51.52-52.77-51.27-139.84.54-194.46,51.82-54.63,135.59-56.13,187.11-3.36h0Z"/>
    <path class="st9" d="M2292.73,1719.69l393.26,402.84c51.52,52.77,51.28,139.84-.54,194.46-51.82,54.63-135.59,56.13-187.11,3.36l-393.26-402.84c-51.52-52.77-51.27-139.84.54-194.46,51.82-54.63,135.59-56.13,187.11-3.36h0Z"/>
  </g>
  <g>
    <path class="st4" d="M2077.7,1142.91l311.35-327.28c40.79-42.88,107.22-41.7,148.38,2.62,41.16,44.32,41.46,115.01.68,157.89l-311.35,327.28c-40.79,42.87-107.22,41.7-148.38-2.62-41.16-44.32-41.46-115.01-.68-157.89h0Z"/>
    <path class="st15" d="M2077.7,1142.91l311.35-327.28c40.79-42.88,107.22-41.7,148.38,2.62,41.16,44.32,41.46,115.01.68,157.89l-311.35,327.28c-40.79,42.87-107.22,41.7-148.38-2.62-41.16-44.32-41.46-115.01-.68-157.89h0Z"/>
  </g>
  <g>
    <path class="st4" d="M2207.82,1245.13l310.53,328.06c40.68,42.98,36.03,109.26-10.39,148.04-46.42,38.78-117.03,35.38-157.71-7.59l-310.53-328.06c-40.68-42.98-36.03-109.26,10.39-148.04,46.42-38.78,117.03-35.38,157.71,7.59h0Z"/>
    <path class="st15" d="M2207.82,1245.13l310.53,328.06c40.68,42.98,36.03,109.26-10.39,148.04-46.42,38.78-117.03,35.38-157.71-7.59l-310.53-328.06c-40.68-42.98-36.03-109.26,10.39-148.04,46.42-38.78,117.03-35.38,157.71,7.59h0Z"/>
  </g>
  <g>
    <path class="st4" d="M2077.7,1142.91l311.35-327.28c40.79-42.88,107.22-41.7,148.38,2.62,41.16,44.32,41.46,115.01.68,157.89l-311.35,327.28c-40.79,42.87-107.22,41.7-148.38-2.62-41.16-44.32-41.46-115.01-.68-157.89h0Z"/>
    <path class="st15" d="M2077.7,1142.91l311.35-327.28c40.79-42.88,107.22-41.7,148.38,2.62,41.16,44.32,41.46,115.01.68,157.89l-311.35,327.28c-40.79,42.87-107.22,41.7-148.38-2.62-41.16-44.32-41.46-115.01-.68-157.89h0Z"/>
  </g>
  <g>
    <path class="st4" d="M2004.01,1278.05c0-81.47,51.67-147.51,115.41-147.51s115.41,66.04,115.41,147.51-51.67,147.51-115.41,147.51-115.41-66.04-115.41-147.51h0Z"/>
    <path class="st15" d="M2004.01,1278.05c0-81.47,51.67-147.51,115.41-147.51s115.41,66.04,115.41,147.51-51.67,147.51-115.41,147.51-115.41-66.04-115.41-147.51h0Z"/>
  </g>
  <g>
    <path class="st4" d="M2054.69,1153.31l301.04-301.64c39.44-39.52,99.42-34.68,133.97,10.8,34.55,45.48,30.59,114.38-8.85,153.9l-301.04,301.64c-39.44,39.52-99.42,34.68-133.97-10.8-34.55-45.48-30.59-114.38,8.85-153.9h0Z"/>
    <path class="st15" d="M2054.69,1153.31l301.04-301.64c39.44-39.52,99.42-34.68,133.97,10.8,34.55,45.48,30.59,114.38-8.85,153.9l-301.04,301.64c-39.44,39.52-99.42,34.68-133.97-10.8-34.55-45.48-30.59-114.38,8.85-153.9h0Z"/>
  </g>
  <g>
    <path class="st0" d="M1190.78,2298.01l358.61-374.69c46.98-49.09,125.98-50.27,176.45-2.65,50.47,47.62,53.3,126.02,6.32,175.1l-358.61,374.69c-46.98,49.09-125.98,50.27-176.45,2.65-50.47-47.62-53.3-126.02-6.32-175.11h0Z"/>
    <path class="st9" d="M1190.78,2298.01l358.61-374.69c46.98-49.09,125.98-50.27,176.45-2.65,50.47,47.62,53.3,126.02,6.32,175.1l-358.61,374.69c-46.98,49.09-125.98,50.27-176.45,2.65-50.47-47.62-53.3-126.02-6.32-175.11h0Z"/>
  </g>
  <g>
    <path class="st4" d="M2354.83,1273.55c0-78.98,62.03-143.01,138.54-143.01s138.54,64.03,138.54,143.01-62.03,143.01-138.54,143.01-138.54-64.03-138.54-143.01h0Z"/>
    <path class="st15" d="M2354.83,1273.55c0-78.98,62.03-143.01,138.54-143.01s138.54,64.03,138.54,143.01-62.03,143.01-138.54,143.01-138.54-64.03-138.54-143.01h0Z"/>
  </g>
  <g>
    <path class="st5" d="M1653.45,2318.66c0-78.98,62.03-143.01,138.54-143.01s138.54,64.03,138.54,143.01-62.03,143.01-138.54,143.01-138.54-64.03-138.54-143.01h0Z"/>
    <path class="st17" d="M1653.45,2318.66c0-78.98,62.03-143.01,138.54-143.01s138.54,64.03,138.54,143.01-62.03,143.01-138.54,143.01-138.54-64.03-138.54-143.01h0Z"/>
  </g>
  <g>
    <path class="st3" d="M11.46,1278.36c0-76.32,57.29-138.2,127.97-138.2s127.97,61.87,127.97,138.2-57.29,138.2-127.97,138.2-127.97-61.87-127.97-138.2h0Z"/>
    <path class="st12" d="M11.46,1278.36c0-76.32,57.29-138.2,127.97-138.2s127.97,61.87,127.97,138.2-57.29,138.2-127.97,138.2-127.97-61.87-127.97-138.2h0Z"/>
  </g>
  <path class="st9" d="M1857.79,1763.4l305.25,337.09c39.99,44.16,36.37,113.63-8.09,155.16-44.46,41.53-112.91,39.4-152.9-4.76l-305.25-337.09c-39.99-44.16-36.36-113.63,8.09-155.16,44.46-41.53,112.91-39.4,152.9,4.76h0Z"/>
  <g>
    <path class="st5" d="M1610.49,1885.32c0-78.98,62.03-143.01,138.54-143.01s138.54,64.03,138.54,143.01-62.03,143.01-138.54,143.01-138.54-64.03-138.54-143.01h0Z"/>
    <path class="st17" d="M1610.49,1885.32c0-78.98,62.03-143.01,138.54-143.01s138.54,64.03,138.54,143.01-62.03,143.01-138.54,143.01-138.54-64.03-138.54-143.01h0Z"/>
  </g>
  <g>
    <path class="st0" d="M1383.54,2104.79l254.92-307.13c33.4-40.24,93.98-45.45,135.32-11.64,41.34,33.81,47.78,93.83,14.39,134.06l-254.92,307.13c-33.4,40.24-93.98,45.45-135.32,11.64-41.34-33.81-47.78-93.83-14.39-134.06h0Z"/>
    <path class="st9" d="M1383.54,2104.79l254.92-307.13c33.4-40.24,93.98-45.45,135.32-11.64,41.34,33.81,47.78,93.83,14.39,134.06l-254.92,307.13c-33.4,40.24-93.98,45.45-135.32,11.64-41.34-33.81-47.78-93.83-14.39-134.06h0Z"/>
  </g>
  <g>
    <path class="st5" d="M1619.89,1871.84c0-78.98,62.03-143.01,138.54-143.01s138.54,64.03,138.54,143.01-62.03,143.01-138.54,143.01-138.54-64.03-138.54-143.01h0Z"/>
    <path class="st17" d="M1619.89,1871.84c0-78.98,62.03-143.01,138.54-143.01s138.54,64.03,138.54,143.01-62.03,143.01-138.54,143.01-138.54-64.03-138.54-143.01h0Z"/>
  </g>
  <g>
    <path class="st0" d="M1311.59,2170.09l330.76-384.35c43.33-50.35,120.32-55.5,171.96-11.5,51.64,44,58.38,120.49,15.05,170.84l-330.76,384.35c-43.33,50.35-120.32,55.5-171.96,11.5-51.64-44-58.38-120.49-15.05-170.84h0Z"/>
    <path class="st9" d="M1311.59,2170.09l330.76-384.35c43.33-50.35,120.32-55.5,171.96-11.5,51.64,44,58.38,120.49,15.05,170.84l-330.76,384.35c-43.33,50.35-120.32,55.5-171.96,11.5-51.64-44-58.38-120.49-15.05-170.84h0Z"/>
  </g>
  <g>
    <path class="st0" d="M1600.47,2071.19l165.37-157.02c21.66-20.57,59.52-23.22,84.56-5.91,25.04,17.3,27.78,48.01,6.11,68.58l-165.37,157.02c-21.66,20.57-59.52,23.22-84.56,5.91-25.04-17.3-27.78-48.01-6.11-68.58h0Z"/>
    <path class="st9" d="M1600.47,2071.19l165.37-157.02c21.66-20.57,59.52-23.22,84.56-5.91,25.04,17.3,27.78,48.01,6.11,68.58l-165.37,157.02c-21.66,20.57-59.52,23.22-84.56,5.91-25.04-17.3-27.78-48.01-6.11-68.58h0Z"/>
  </g>
  <path class="st4" d="M1117.52,263.87l223.86-188.49c29.33-24.69,77.09-24.02,106.68,1.51,29.59,25.53,29.81,66.24.49,90.93l-223.86,188.49c-29.33,24.69-77.09,24.02-106.68-1.51-29.59-25.53-29.81-66.24-.49-90.93h0Z"/>
  <g>
    <path class="st4" d="M1134.17,364.02l-238.62-169.42c-31.26-22.19-42.59-68.6-25.3-103.65,17.29-35.05,56.64-45.47,87.9-23.28l238.62,169.42c31.26,22.19,42.59,68.6,25.3,103.65-17.29,35.05-56.64,45.47-87.9,23.28h0Z"/>
    <path class="st15" d="M1134.17,364.02l-238.62-169.42c-31.26-22.19-42.59-68.6-25.3-103.65,17.29-35.05,56.64-45.47,87.9-23.28l238.62,169.42c31.26,22.19,42.59,68.6,25.3,103.65-17.29,35.05-56.64,45.47-87.9,23.28h0Z"/>
  </g>
  <g>
    <path class="st3" d="M887.25,286.45l366.87,350.42c48.06,45.91,47.58,121.53-1.08,168.9-48.66,47.38-127.07,48.57-175.13,2.67l-366.87-350.42c-48.06-45.91-47.58-121.53,1.08-168.9,48.66-47.38,127.07-48.57,175.13-2.67h0Z"/>
    <path class="st12" d="M887.25,286.45l366.87,350.42c48.06,45.91,47.58,121.53-1.08,168.9-48.66,47.38-127.07,48.57-175.13,2.67l-366.87-350.42c-48.06-45.91-47.58-121.53,1.08-168.9,48.66-47.38,127.07-48.57,175.13-2.67h0Z"/>
  </g>
  <g>
    <path class="st4" d="M1128.07,361.98l-169.97-128.87c-22.27-16.88-28.43-50.38-13.78-74.83,14.66-24.45,44.59-30.58,66.86-13.7l169.97,128.87c22.27,16.88,28.43,50.38,13.78,74.83-14.66,24.45-44.59,30.58-66.86,13.7h0Z"/>
    <path class="st15" d="M1128.07,361.98l-169.97-128.87c-22.27-16.88-28.43-50.38-13.78-74.83,14.66-24.45,44.59-30.58,66.86-13.7l169.97,128.87c22.27,16.88,28.43,50.38,13.78,74.83-14.66,24.45-44.59,30.58-66.86,13.7h0Z"/>
  </g>
  <path class="st12" d="M1091.44,797.3c-47.9-47.9-34.27-139.2,30.45-203.92,64.72-64.72,156.02-78.35,203.92-30.45,47.9,47.9,34.27,139.2-30.45,203.92-64.72,64.72-156.02,78.35-203.92,30.45h0Z"/>
  <rect class="st15" x="1132.69" y="606.9" width="246.07" height="28.88" transform="translate(807.15 -705.94) rotate(45)"/>
  <rect class="st15" x="1195.53" y="511.53" width="226.45" height="129.7" transform="translate(741.72 -736.45) rotate(42.87)"/>
  <rect class="st12" x="1047.28" y="599.25" width="322.65" height="28.88" transform="translate(787.93 -674.87) rotate(45)"/>
  <g>
    <path class="st3" d="M1028.11,437.83l238.5,240.52c31.24,31.51,30.96,83.38-.64,115.86-31.6,32.48-82.54,33.27-113.78,1.76l-238.5-240.52c-31.24-31.51-30.96-83.38.64-115.86,31.6-32.48,82.54-33.27,113.78-1.76h0Z"/>
    <path class="st12" d="M1028.11,437.83l238.5,240.52c31.24,31.51,30.96,83.38-.64,115.86-31.6,32.48-82.54,33.27-113.78,1.76l-238.5-240.52c-31.24-31.51-30.96-83.38.64-115.86,31.6-32.48,82.54-33.27,113.78-1.76h0Z"/>
  </g>
  <path class="st12" d="M1188.18,805.72c-25.89-19.38-24.83-64.55,2.37-100.88s70.24-50.08,96.13-30.7c25.89,19.38,24.83,64.55-2.37,100.88-27.2,36.34-70.24,50.08-96.13,30.7h0Z"/>
  <text class="st10" transform="translate(845.82 1400.66)"><tspan x="0" y="0">QemWork</tspan></text>
</svg>